<svg xmlns="http://www.w3.org/2000/svg" xmlns:xlink="http://www.w3.org/1999/xlink" width="1280" height="500" viewBox="0 0 1280 500">
  <defs>
    <clipPath id="clip-Strive_Logo_-_Proper_Spacing">
      <rect width="1280" height="500"/>
    </clipPath>
  </defs>
  <g id="Strive_Logo_-_Proper_Spacing" data-name="Strive Logo - Proper Spacing" clip-path="url(#clip-Strive_Logo_-_Proper_Spacing)">
    <g id="STRIVE.LOGO" transform="translate(138 173.991)">
      <g id="Group_260" data-name="Group 260">
        <path id="Path_7699" data-name="Path 7699" d="M114.56,85.94c22.76,0,34.84,8.16,34.84,23.85,0,22.76-14.28,39.24-51.63,39.24H0l25.58-27h79.57c8.79,0,12.55-2.82,12.55-8.94,0-4.24-3.29-6.28-9.88-6.28H50.53c-23.85,0-34.53-10-34.53-25.27C16,60.2,30.6,44,67.32,44H158.5L132.77,71.3H60c-8.79,0-12.56,2.36-12.56,8.63,0,4.24,3.3,6,10,6Z" transform="translate(0 -22.04)" fill="#2d3142"/>
        <path id="Path_7700" data-name="Path 7700" d="M298.18,44,272.13,71.34H234.78L221,149H188.49l13.65-77.69H152.86l26-27.3Z" transform="translate(0 -22.04)" fill="#2d3142"/>
        <path id="Path_7701" data-name="Path 7701" d="M429.08,149H385.61l-18.52-27.79H317.17L312.31,149H279.83l9.42-53.67h91.33c10.83,0,20.25-5.18,20.25-13.66,0-6.9-6-10.35-16-10.35H293.48L319.54,44H387c22,0,48,6.75,48,31.86,0,19-13.65,35-33.9,38.92,3,2.66,6.28,6.43,12.09,13.81Z" transform="translate(0 -22.04)" fill="#2d3142"/>
        <path id="Path_7702" data-name="Path 7702" d="M474.91,149H442.43L461.1,44h32.33Z" transform="translate(0 -22.04)" fill="#2d3142"/>
        <path id="Path_7703" data-name="Path 7703" d="M546,44l34.43,68.56L640.94,44h37.83L596,137.44c-5.41,6-12.66,11.58-22.7,11.58-9.57,0-15-5.09-18.38-11.58L506.93,44Z" transform="translate(0 -22.04)" fill="#2d3142"/>
        <path id="Path_7785" data-name="Path 7785" d="M694.48,22h121.6l-26,27.3H722.1l-2.2,12.56h58.22L755.4,85.71H715.66l-2.51,14.28H741.8l-25.71,27H675.8Z" fill="#2d3142"/>
      </g>
      <path id="Path_7786" data-name="Path 7786" d="M816.1,22h-.02l.01-.01Z" fill="#f95738" opacity="0.83"/>
      <g id="Group_305" data-name="Group 305">
        <path id="Path_7787" data-name="Path 7787" d="M816.08,22h-.02l.01-.01Z" fill="#f95738" opacity="0.83"/>
        <g id="Group_303" data-name="Group 303">
          <path id="Path_7788" data-name="Path 7788" d="M924.89,125.82l-.01.01-1.05.98-.16.15-.01.01-.02.02H726l100.01-105,45,47.25Z" fill="#454e9e"/>
          <path id="Path_7789" data-name="Path 7789" d="M924.89,125.82l-.01.01-1.05.98-.16.15-.01.01-.02.02H756l85.01-89.25,30,31.5Z" fill="#f95738"/>
          <path id="Path_7790" data-name="Path 7790" d="M924.89,125.82l-.01.01-1.05.98-.16.15-.01.01-.02.02H786l70.01-73.5,15,15.75Z" fill="#ffad05"/>
          <path id="Path_7791" data-name="Path 7791" d="M924.89,125.82l-.01.01-1.05.98-.16.15-.01.01-.02.02H816l54.93-57.67.04-.04.04-.04Z" fill="#29bf12"/>
        </g>
        <g id="Group_304" data-name="Group 304">
          <path id="Path_7792" data-name="Path 7792" d="M928.4,66.94a18.5,18.5,0,1,0-16.52-16.52A18.5,18.5,0,0,0,928.4,66.94Z" transform="translate(0 -22.04)" fill="#2d3142"/>
          <path id="Path_7793" data-name="Path 7793" d="M1004.68,29.73A9,9,0,0,0,989.3,24.8h0l-48,45.49-.16.15-23.36,2.51-9.51,1-28.43,3a9,9,0,0,0-9,9v.5l.12,4.78v.06l.86,33.66a9,9,0,0,0,3.85,7.37L858.09,149h0l-37.23,35.25-.21.2h0l-.11.09h0a9,9,0,0,0,12.1,13.27l.82-.78.05-.05L883,150.12a4,4,0,0,1,2.38-1.09h11.2a.43.43,0,0,1,.18.73l-18.9,17.53-.15.14a9,9,0,0,0,11.93,13.46l.09-.08.05-.05.42-.39v-.05L923.64,149h0l.16-.15,1-1h0l5.46-5.09a16.823,16.823,0,0,0,2.87-2.69h0a9,9,0,0,0-3-12.85c-.12-.07-.24-.14-.37-.2h0a8.88,8.88,0,0,0-2.65-.87c-1.05-.18-2.43-.12-3-.92l-.43-.76a5.31,5.31,0,0,1,.76-2.75L943.08,95.6h0l5.69-8h0l51.38-48.73h0l3-2.87a8.889,8.889,0,0,0,1.45-4.89A9.713,9.713,0,0,0,1004.68,29.73ZM894.32,93.17l-.22.32-4.94,11v-2L889,94Z" transform="translate(0 -22.04)" fill="#2d3142"/>
        </g>
      </g>
    </g>
  </g>
</svg>
